HIERARCHY
ROOT Hips
{
	OFFSET 0.000000 0.000000 0.000000 
	CHANNELS 6 Xposition Yposition Zposition Zrotation Yrotation Xrotation
	JOINT LeftUpLeg
	{
		OFFSET 1.363060 -1.794630 0.839290 
		CHANNELS 3 Zrotation Yrotation Xrotation
		JOINT LeftLeg
		{
			OFFSET 2.448110 -6.726130 0.000000 
			CHANNELS 3 Zrotation Yrotation Xrotation
			JOINT LeftFoot
			{
				OFFSET 2.562200 -7.039590 0.000000 
				CHANNELS 3 Zrotation Yrotation Xrotation
				JOINT LeftToeBase
				{
					OFFSET 0.157640 -0.433110 2.322550 
					CHANNELS 3 Zrotation Yrotation Xrotation
					End Site
					{
						OFFSET 0.000000 0.000000 0.000000 
					}
				}
			}
		}
	}
	JOINT RightUpLeg
	{
		OFFSET -1.305520 -1.794630 0.839290 
		CHANNELS 3 Zrotation Yrotation Xrotation
		JOINT RightLeg
		{
			OFFSET -2.542530 -6.985550 0.000000 
			CHANNELS 3 Zrotation Yrotation Xrotation
			JOINT RightFoot
			{
				OFFSET -2.568260 -7.056230 0.000000 
				CHANNELS 3 Zrotation Yrotation Xrotation
				JOINT RightToeBase
				{
					OFFSET -0.164730 -0.452590 2.363150 
					CHANNELS 3 Zrotation Yrotation Xrotation
					End Site
					{
						OFFSET 0.000000 0.000000 0.000000 
					}
				}
			}
		}
	}
	JOINT Spine
	{
		OFFSET 0.028270 2.035590 -0.193380 
		CHANNELS 3 Zrotation Yrotation Xrotation
		JOINT Spine1
		{
			OFFSET 0.056720 2.048850 -0.042750 
			CHANNELS 3 Zrotation Yrotation Xrotation
			JOINT Neck1
			{
				OFFSET -0.054170 1.746240 0.172020 
				CHANNELS 3 Zrotation Yrotation Xrotation
				JOINT Head
				{
					OFFSET 0.104070 1.761360 -0.123970 
					CHANNELS 3 Zrotation Yrotation Xrotation
					End Site
					{
						OFFSET 0.000000 0.000000 0.000000 
					}
				}
			}
			JOINT LeftArm
			{
				OFFSET 3.362410 1.200890 -0.311210 
				CHANNELS 3 Zrotation Yrotation Xrotation
				JOINT LeftForeArm
				{
					OFFSET 4.983000 -0.000000 -0.000000 
					CHANNELS 3 Zrotation Yrotation Xrotation
					JOINT LeftHand
					{
						OFFSET 3.483560 -0.000000 -0.000000 
						CHANNELS 3 Zrotation Yrotation Xrotation
						JOINT LeftHandIndex1
						{
							OFFSET 0.715260 -0.000000 -0.000000 
							CHANNELS 3 Zrotation Yrotation Xrotation
							End Site
							{
								OFFSET 0.000000 0.000000 0.000000 
							}
						}
					}
				}
			}
			JOINT RightArm
			{
				OFFSET -3.136600 1.374050 -0.404650 
				CHANNELS 3 Zrotation Yrotation Xrotation
				JOINT RightForeArm
				{
					OFFSET -5.241900 -0.000000 -0.000000 
					CHANNELS 3 Zrotation Yrotation Xrotation
					JOINT RightHand
					{
						OFFSET -3.444170 -0.000000 -0.000000 
						CHANNELS 3 Zrotation Yrotation Xrotation
						JOINT RightHandIndex1
						{
							OFFSET -0.622530 -0.000000 -0.000000 
							CHANNELS 3 Zrotation Yrotation Xrotation
							End Site
							{
								OFFSET 0.000000 0.000000 0.000000 
							}
						}
					}
				}
			}
		}
	}
}
MOTION
Frames: 15
Frame Time: 0.041667
15.868711 18.826130 19.784644 -179.471913 -3.838587 -149.278700 -59.110049 -29.987719 -17.626718 6.174728 5.125515 14.070414 0.698945 -13.696559 -46.064458 3.440800 -11.376600 -33.560800 66.821747 28.094120 -13.585206 -6.104255 -3.687860 9.916786 -2.844180 10.253600 -47.835582 -1.422800 7.543000 -21.334300 11.609700 -0.653365 -0.040286 -3.120270 -1.453903 21.896177 7.054983 0.069897 -9.576429 0.734800 -0.656000 1.776700 -111.354464 -6.199305 14.669100 18.993825 -17.579126 -1.920287 0.672243 -0.209821 6.480378 -7.125000 0.000000 0.000000 105.466242 1.381236 0.933719 -23.144299 31.380609 -4.118712 -0.514883 -4.442856 -1.046149 7.125000 0.000000 0.000000 
15.870720 18.825843 19.787322 -179.390615 -3.862730 -149.191697 -59.001002 -30.006780 -17.739218 6.195165 5.169124 14.128226 0.679914 -13.551161 -45.754701 2.612300 -10.039300 -29.104100 66.834714 28.275276 -13.670800 -6.080002 -3.741220 9.965465 -2.890767 9.947050 -47.575425 -1.511100 7.763400 -21.997700 11.855146 -0.611571 -0.415029 -3.188342 -1.456356 22.004062 6.946562 0.084934 -9.671885 0.719800 -0.649600 1.751900 -111.334190 -6.156409 14.845502 19.030645 -17.620566 -1.934302 0.673817 -0.208759 6.279951 -7.125000 0.000000 0.000000 105.477057 1.359710 0.985392 -23.172762 31.401636 -4.125190 -0.522960 -4.455716 -1.085049 7.125000 0.000000 0.000000 
15.872250 18.824600 19.789140 -179.381966 -3.851742 -149.148955 -58.940194 -30.100964 -17.795663 6.196093 5.175847 14.113953 0.730487 -13.457437 -45.800165 2.609600 -10.034600 -29.088800 66.777797 28.379797 -13.819056 -6.071373 -3.841842 10.201399 -2.796023 9.842600 -47.093586 -1.557300 7.875800 -22.337300 11.793306 -0.606310 -0.463338 -3.184214 -1.449800 22.016862 6.906150 0.090967 -9.674030 0.710500 -0.644900 1.756500 -111.270641 -6.176278 15.048189 19.053011 -17.634765 -1.941488 0.679366 -0.206864 6.031350 -7.125000 0.000000 0.000000 105.462557 1.279455 1.264395 -23.287973 31.529357 -4.169178 -0.501071 -4.451637 -1.440072 7.125000 0.000000 0.000000 
15.872729 18.823452 19.789044 -179.327434 -3.810600 -149.235956 -58.922454 -30.112034 -17.761859 6.191028 5.145574 14.089898 0.737489 -13.611217 -46.121716 3.408200 -11.328300 -33.395100 66.837099 28.134439 -13.800214 -6.082271 -3.763034 10.231882 -2.663662 10.660804 -47.819298 -1.252300 7.094700 -19.996200 12.050839 -0.619015 -0.051874 -3.248493 -1.421727 21.964104 7.009771 0.054264 -9.784290 0.725500 -0.673400 1.742300 -111.292751 -6.249503 15.199260 19.079242 -17.724131 -1.956425 0.683374 -0.202217 5.844390 -7.125000 0.000000 0.000000 105.425482 1.212065 1.526059 -23.417526 31.695391 -4.224131 -0.471036 -4.445317 -1.758305 7.125000 0.000000 0.000000 
15.873111 18.822687 19.790575 -179.387643 -3.794707 -149.253150 -58.968656 -30.080340 -17.778295 6.190696 5.179792 14.153209 0.687976 -13.558065 -45.809534 2.672400 -10.144900 -29.447200 66.811057 27.907832 -13.794740 -6.107078 -3.751093 10.237318 -2.518787 10.878083 -47.561354 -1.447400 7.605200 -21.521300 11.830886 -0.588162 -0.092915 -3.144533 -1.416022 22.064222 7.273625 0.035138 -9.877793 0.755200 -0.697600 1.711100 -111.283708 -6.261007 15.319056 19.141772 -17.810017 -1.977054 0.682659 -0.195562 5.715203 -7.125000 0.000000 0.000000 105.431093 1.175549 1.566839 -23.468594 31.745998 -4.247398 -0.464813 -4.442607 -1.808836 7.125000 0.000000 0.000000 
15.873876 18.822496 19.794209 -179.465512 -3.809548 -149.174816 -59.014051 -30.139599 -17.876205 6.172040 5.207450 14.218075 0.683457 -13.558548 -45.807507 2.771100 -10.314900 -30.002700 66.688367 27.944276 -13.904029 -6.129259 -3.798966 10.301018 -2.467535 10.713267 -47.150031 -1.566000 7.896700 -22.400600 11.841819 -0.581698 -0.461195 -3.106806 -1.448369 22.192909 7.298158 0.063464 -9.834988 0.768300 -0.681700 1.697200 -111.311482 -6.212361 15.315719 19.197913 -17.885838 -1.995106 0.675224 -0.192593 5.672996 -7.125000 0.000000 0.000000 105.394699 1.156073 1.622555 -23.470771 31.716629 -4.245882 -0.465658 -4.443194 -1.804837 7.125000 0.000000 0.000000 
15.874355 18.822878 19.796601 -179.448594 -3.869451 -149.210695 -58.979244 -30.207440 -17.904410 6.162169 5.197200 14.250973 0.675164 -13.714368 -46.094327 3.562900 -11.554900 -34.174900 66.753476 27.893298 -13.798720 -6.128766 -3.704412 10.125308 -2.573561 10.921596 -47.838146 -1.217200 6.998300 -19.710300 11.931002 -0.590183 -0.409771 -3.134529 -1.449438 22.168293 7.266647 0.071424 -9.820737 0.763500 -0.675500 1.699300 -111.325948 -6.188993 15.378148 19.251646 -17.986607 -2.015995 0.677743 -0.199591 5.653824 -7.125000 0.000000 0.000000 105.410927 1.217280 1.529692 -23.434944 31.686404 -4.230204 -0.475232 -4.449553 -1.779725 7.125000 0.000000 0.000000 
15.875502 18.823452 19.799661 -179.492970 -3.911343 -149.282712 -58.979570 -30.209936 -17.888142 6.168723 5.228255 14.322045 0.609075 -13.685610 -45.767290 2.609300 -10.033900 -29.086700 66.745476 27.913838 -13.717607 -6.130510 -3.719902 10.118555 -2.624595 10.691526 -47.668678 -1.356800 7.373400 -20.826500 11.717568 -0.615734 -0.273819 -3.093093 -1.451419 22.149000 7.380439 0.074991 -9.828316 0.774700 -0.678600 1.691200 -111.332548 -6.188530 15.394626 19.302945 -18.078316 -2.034794 0.686444 -0.213118 5.683695 -7.125000 0.000000 0.000000 105.456330 1.332797 1.410435 -23.377526 31.637475 -4.210239 -0.482466 -4.446324 -1.655853 7.125000 0.000000 0.000000 
15.878563 18.824026 19.804540 -179.506080 -3.919029 -149.186877 -58.986176 -30.271323 -17.991890 6.156786 5.254382 14.379018 0.591442 -13.691059 -45.732799 2.655800 -10.115900 -29.352800 66.558360 28.347341 -13.938150 -6.127377 -3.842123 10.318693 -2.709961 10.185943 -47.352979 -1.406300 7.500900 -21.208200 12.280701 -0.582110 -0.515431 -3.157031 -1.479530 22.198577 7.608789 0.033223 -9.658477 0.819700 -0.696900 1.700600 -111.436661 -6.190273 15.444226 19.323356 -18.140505 -2.047215 0.679896 -0.220496 5.681093 -7.125000 0.000000 0.000000 105.411053 1.371276 1.338371 -23.354828 31.607389 -4.202888 -0.480587 -4.447879 -1.526145 7.125000 0.000000 0.000000 
15.880955 18.824026 19.807122 -179.528594 -3.959979 -148.994640 -58.940109 -30.343824 -18.118259 6.148842 5.252380 14.389984 0.643723 -13.711018 -46.015113 3.544700 -11.528600 -34.084100 66.520462 28.595504 -14.098335 -6.115805 -3.827269 10.303058 -2.851069 10.218765 -48.046874 -1.192300 6.928900 -19.504900 11.997425 -0.513780 -1.512257 -3.134664 -1.506353 22.416579 7.781824 0.036287 -9.428108 0.838900 -0.688400 1.703300 -111.364691 -6.046501 15.509482 19.421069 -18.219844 -2.074817 0.677766 -0.202549 5.548467 -7.125000 0.000000 0.000000 105.432118 1.225576 1.417994 -23.414330 31.612835 -4.220565 -0.472284 -4.444589 -1.549088 7.125000 0.000000 0.000000 
15.881433 18.823452 19.807983 -179.440295 -3.898541 -149.113652 -58.950210 -30.361433 -18.028594 6.155406 5.274686 14.387022 0.709271 -13.470402 -45.804419 2.754200 -10.286100 -29.908200 66.607981 28.178250 -13.918892 -6.137923 -3.770892 10.233553 -2.663625 10.552179 -47.687396 -1.269400 7.141200 -20.134400 12.760943 -0.501069 -1.233719 -3.324984 -1.484172 22.342821 8.069890 -0.005640 -9.249302 0.895600 -0.708400 1.714900 -111.481567 -6.124804 15.501544 19.429283 -18.319183 -2.086972 0.672948 -0.193202 5.569445 -7.125000 0.000000 0.000000 105.371232 1.242942 1.523110 -23.445188 31.656817 -4.231984 -0.477063 -4.450491 -1.566733 7.125000 0.000000 0.000000 
15.882772 18.824791 19.810757 -179.510108 -3.841362 -149.205718 -58.996084 -30.400550 -17.953349 6.146810 5.277584 14.399436 0.769914 -13.393780 -45.879887 2.626500 -10.064400 -29.185600 66.628344 27.827221 -13.751949 -6.168515 -3.744292 10.212142 -2.470819 10.750750 -47.120273 -1.286200 7.186400 -20.268600 12.449955 -0.479196 -1.365439 -3.243310 -1.478744 22.323302 8.340533 -0.020856 -9.058036 0.928200 -0.713800 1.723800 -111.439499 -6.123203 15.567188 19.469449 -18.352917 -2.098133 0.680486 -0.193902 5.503866 -7.125000 0.000000 0.000000 105.406636 1.305409 1.445743 -23.381025 31.575155 -4.204600 -0.513229 -4.450651 -1.356736 7.125000 0.000000 0.000000 
15.884781 18.827278 19.814296 -179.535319 -3.855536 -149.145648 -58.968831 -30.452855 -18.036655 6.133608 5.264759 14.425338 0.782131 -13.553211 -46.261335 3.391800 -11.303800 -33.311300 66.599191 27.936779 -13.840274 -6.168023 -3.704943 10.207751 -2.558532 11.017872 -47.923404 -1.034400 6.468800 -18.150900 12.318786 -0.438817 -1.703868 -3.220671 -1.482754 22.408402 8.733990 -0.105497 -8.882445 0.977800 -0.759900 1.720200 -111.384250 -6.129069 15.819382 19.516382 -18.393104 -2.115019 0.689817 -0.194999 5.264640 -7.125000 0.000000 0.000000 105.428072 1.350323 1.342028 -23.334119 31.499577 -4.182142 -0.539903 -4.453751 -1.231613 7.125000 0.000000 0.000000 
15.884972 18.826608 19.816305 -179.546147 -3.840094 -149.024312 -58.932961 -30.491028 -18.160097 6.141241 5.301088 14.440517 0.752519 -13.410377 -45.889093 2.622000 -10.056300 -29.159400 66.501904 28.094855 -14.065586 -6.165611 -3.779379 10.375271 -2.515775 10.966992 -47.789886 -1.253600 7.098200 -20.006700 12.253063 -0.404829 -1.912922 -3.220658 -1.480057 22.552672 9.068922 -0.146000 -8.813896 1.022200 -0.787700 1.710000 -111.363300 -6.180444 15.959911 19.560973 -18.454973 -2.131215 0.692360 -0.193655 5.074246 -7.125000 0.000000 0.000000 105.442910 1.378578 1.305259 -23.349781 31.505940 -4.188572 -0.542761 -4.451702 -1.210700 7.125000 0.000000 0.000000 
15.885163 18.825078 19.817070 -179.572721 -3.832436 -149.014730 -58.926436 -30.514908 -18.159402 6.141557 5.304176 14.458509 0.734045 -13.432850 -45.852933 2.526800 -9.886500 -28.609800 66.509772 28.024244 -14.071912 -6.164950 -3.830247 10.438963 -2.469817 10.752726 -47.281109 -1.482100 7.691700 -21.781600 12.009952 -0.398343 -2.095996 -3.184923 -1.480143 22.653612 9.349841 -0.124124 -8.783542 1.057200 -0.784100 1.691300 -111.325544 -6.209555 15.985146 19.588521 -18.478634 -2.138439 0.697678 -0.193716 4.986032 -7.125000 0.000000 0.000000 105.478551 1.330546 1.362198 -23.421917 31.575376 -4.217737 -0.534248 -4.449147 -1.259702 7.125000 0.000000 0.000000 
